<svg width="20" height="20" viewBox="0 0 20 20" fill="none" xmlns="http://www.w3.org/2000/svg">
<path d="M10.7 9.2L9.25 7.775C9.05 7.59167 8.81667 7.5 8.55 7.5C8.28333 7.5 8.05 7.6 7.85 7.8C7.66667 7.98333 7.575 8.21667 7.575 8.5C7.575 8.78333 7.66667 9.01667 7.85 9.2L10 11.35C10.1833 11.5333 10.4167 11.625 10.7 11.625C10.9833 11.625 11.2167 11.5333 11.4 11.35L15.65 7.1C15.85 6.9 15.95 6.66233 15.95 6.387C15.95 6.11233 15.85 5.875 15.65 5.675C15.45 5.475 15.2127 5.375 14.938 5.375C14.6627 5.375 14.425 5.475 14.225 5.675L10.7 9.2ZM6 16C5.45 16 4.97933 15.8043 4.588 15.413C4.196 15.021 4 14.55 4 14V2C4 1.45 4.196 0.979 4.588 0.587C4.97933 0.195667 5.45 0 6 0H18C18.55 0 19.021 0.195667 19.413 0.587C19.8043 0.979 20 1.45 20 2V14C20 14.55 19.8043 15.021 19.413 15.413C19.021 15.8043 18.55 16 18 16H6ZM2 20C1.45 20 0.979333 19.8043 0.588 19.413C0.196 19.021 0 18.55 0 18V5C0 4.71667 0.0960001 4.479 0.288 4.287C0.479333 4.09567 0.716667 4 1 4C1.28333 4 1.521 4.09567 1.713 4.287C1.90433 4.479 2 4.71667 2 5V18H15C15.2833 18 15.5207 18.096 15.712 18.288C15.904 18.4793 16 18.7167 16 19C16 19.2833 15.904 19.5207 15.712 19.712C15.5207 19.904 15.2833 20 15 20H2Z" fill="#215BB3"/>
</svg>
