<svg width="20" height="20" viewBox="0 0 20 20" fill="none" xmlns="http://www.w3.org/2000/svg">
<path d="M17 0H3.66667C2.75 0 2 0.75 2 1.66667V18.3333C2 19.25 2.75 20 3.66667 20H17C17.9167 20 18.6667 19.25 18.6667 18.3333V1.66667C18.6667 0.75 17.9167 0 17 0ZM7 16.6667C7 17.125 6.625 17.5 6.16667 17.5H4.5C4.04167 17.5 3.66667 17.125 3.66667 16.6667V16.25C3.66667 15.7917 4.04167 15.4167 4.5 15.4167H6.16667C6.625 15.4167 7 15.7917 7 16.25V16.6667ZM7 13.3333C7 13.7917 6.625 14.1667 6.16667 14.1667H4.5C4.04167 14.1667 3.66667 13.7917 3.66667 13.3333V12.9167C3.66667 12.4583 4.04167 12.0833 4.5 12.0833H6.16667C6.625 12.0833 7 12.4583 7 12.9167V13.3333ZM7 10C7 10.4583 6.625 10.8333 6.16667 10.8333H4.5C4.04167 10.8333 3.66667 10.4583 3.66667 10V9.58333C3.66667 9.125 4.04167 8.75 4.5 8.75H6.16667C6.625 8.75 7 9.125 7 9.58333V10ZM12 16.6667C12 17.125 11.625 17.5 11.1667 17.5H9.5C9.04167 17.5 8.66667 17.125 8.66667 16.6667V16.25C8.66667 15.7917 9.04167 15.4167 9.5 15.4167H11.1667C11.625 15.4167 12 15.7917 12 16.25V16.6667ZM12 13.3333C12 13.7917 11.625 14.1667 11.1667 14.1667H9.5C9.04167 14.1667 8.66667 13.7917 8.66667 13.3333V12.9167C8.66667 12.4583 9.04167 12.0833 9.5 12.0833H11.1667C11.625 12.0833 12 12.4583 12 12.9167V13.3333ZM12 10C12 10.4583 11.625 10.8333 11.1667 10.8333H9.5C9.04167 10.8333 8.66667 10.4583 8.66667 10V9.58333C8.66667 9.125 9.04167 8.75 9.5 8.75H11.1667C11.625 8.75 12 9.125 12 9.58333V10ZM17 16.6667C17 17.125 16.625 17.5 16.1667 17.5H14.5C14.0417 17.5 13.6667 17.125 13.6667 16.6667V16.25C13.6667 15.7917 14.0417 15.4167 14.5 15.4167H16.1667C16.625 15.4167 17 15.7917 17 16.25V16.6667ZM17 13.3333C17 13.7917 16.625 14.1667 16.1667 14.1667H14.5C14.0417 14.1667 13.6667 13.7917 13.6667 13.3333V12.9167C13.6667 12.4583 14.0417 12.0833 14.5 12.0833H16.1667C16.625 12.0833 17 12.4583 17 12.9167V13.3333ZM17 10C17 10.4583 16.625 10.8333 16.1667 10.8333H14.5C14.0417 10.8333 13.6667 10.4583 13.6667 10V9.58333C13.6667 9.125 14.0417 8.75 14.5 8.75H16.1667C16.625 8.75 17 9.125 17 9.58333V10ZM17 6.25C17 6.70833 16.625 7.08333 16.1667 7.08333H4.5C4.04167 7.08333 3.66667 6.70833 3.66667 6.25V2.91667C3.66667 2.45833 4.04167 2.08333 4.5 2.08333H16.1667C16.625 2.08333 17 2.45833 17 2.91667V6.25Z" fill="white"/>
</svg>
