<svg width="20" height="20" viewBox="0 0 20 20" fill="none" xmlns="http://www.w3.org/2000/svg">
<path d="M9.825 12H13C13.2833 12 13.521 11.904 13.713 11.712C13.9043 11.5207 14 11.2833 14 11C14 10.7167 13.9043 10.479 13.713 10.287C13.521 10.0957 13.2833 10 13 10H9.825L10.725 9.1C10.925 8.91667 11.0207 8.68733 11.012 8.412C11.004 8.13733 10.9 7.9 10.7 7.7C10.5167 7.51667 10.2833 7.425 10 7.425C9.71667 7.425 9.48333 7.51667 9.3 7.7L6.7 10.3C6.51667 10.4833 6.425 10.7167 6.425 11C6.425 11.2833 6.51667 11.5167 6.7 11.7L9.3 14.3C9.48333 14.4833 9.71667 14.575 10 14.575C10.2833 14.575 10.5167 14.4833 10.7 14.3C10.8833 14.1167 10.975 13.8877 10.975 13.613C10.975 13.3377 10.8833 13.1 10.7 12.9L9.825 12ZM3 20C2.45 20 1.979 19.8043 1.587 19.413C1.19567 19.021 1 18.55 1 18V4C1 3.45 1.19567 2.979 1.587 2.587C1.979 2.19567 2.45 2 3 2H7.2C7.41667 1.4 7.77933 0.916667 8.288 0.55C8.796 0.183333 9.36667 0 10 0C10.6333 0 11.2043 0.183333 11.713 0.55C12.221 0.916667 12.5833 1.4 12.8 2H17C17.55 2 18.021 2.19567 18.413 2.587C18.8043 2.979 19 3.45 19 4V18C19 18.55 18.8043 19.021 18.413 19.413C18.021 19.8043 17.55 20 17 20H3ZM10 3.25C10.2167 3.25 10.396 3.179 10.538 3.037C10.6793 2.89567 10.75 2.71667 10.75 2.5C10.75 2.28333 10.6793 2.104 10.538 1.962C10.396 1.82067 10.2167 1.75 10 1.75C9.78333 1.75 9.60433 1.82067 9.463 1.962C9.321 2.104 9.25 2.28333 9.25 2.5C9.25 2.71667 9.321 2.89567 9.463 3.037C9.60433 3.179 9.78333 3.25 10 3.25Z" fill="#215BB3"/>
</svg>
