<svg width="262" height="1170" viewBox="0 0 262 1170" fill="none" xmlns="http://www.w3.org/2000/svg">
<mask id="mask0_404_878" style="mask-type:alpha" maskUnits="userSpaceOnUse" x="0" y="0" width="262" height="1170">
<rect width="262" height="1170" fill="url(#paint0_linear_404_878)"/>
</mask>
<g mask="url(#mask0_404_878)">
<path opacity="0.2" d="M345.48 580.055L357.335 514.254C176.538 563.168 -19.0779 642.944 -125.185 774.545C-182.684 845.586 -185.648 920.704 -162.53 989.998H330.067C-2.48019 820.547 138.008 677.3 345.48 580.055Z" fill="url(#paint1_linear_404_878)"/>
<path opacity="0.2" d="M370.005 446C-289.209 525.624 -433.524 855.162 -465 990H-225.663C-245.856 917.35 -236.353 840.051 -167.463 764.496C-50.4668 637.214 154.424 548.872 361.691 494.821L370.005 446Z" fill="url(#paint2_linear_404_878)"/>
</g>
<defs>
<linearGradient id="paint0_linear_404_878" x1="131" y1="0" x2="131" y2="1570.09" gradientUnits="userSpaceOnUse">
<stop stop-color="#2C3A91"/>
<stop offset="1" stop-color="#28A9E0"/>
</linearGradient>
<linearGradient id="paint1_linear_404_878" x1="-21.4997" y1="330.498" x2="90.5265" y2="989.934" gradientUnits="userSpaceOnUse">
<stop stop-color="white"/>
<stop offset="1" stop-color="white" stop-opacity="0"/>
</linearGradient>
<linearGradient id="paint2_linear_404_878" x1="-432" y1="205.5" x2="-47.4973" y2="990" gradientUnits="userSpaceOnUse">
<stop stop-color="white"/>
<stop offset="1" stop-color="white" stop-opacity="0"/>
</linearGradient>
</defs>
</svg>
