<svg width="20" height="20" viewBox="0 0 20 20" fill="none" xmlns="http://www.w3.org/2000/svg">
<path d="M10 1C11.1935 1 12.3381 1.47411 13.182 2.31802C14.0259 3.16193 14.5 4.30653 14.5 5.5C14.5 6.69347 14.0259 7.83807 13.182 8.68198C12.3381 9.52589 11.1935 10 10 10C8.80653 10 7.66193 9.52589 6.81802 8.68198C5.97411 7.83807 5.5 6.69347 5.5 5.5C5.5 4.30653 5.97411 3.16193 6.81802 2.31802C7.66193 1.47411 8.80653 1 10 1ZM10 12.25C14.9725 12.25 19 14.2638 19 16.75V19H1V16.75C1 14.2638 5.0275 12.25 10 12.25Z" fill="white"/>
</svg>
