<svg width="15" height="15" viewBox="0 0 15 15" fill="none" xmlns="http://www.w3.org/2000/svg">
<mask id="mask0_230_1080" style="mask-type:alpha" maskUnits="userSpaceOnUse" x="0" y="0" width="15" height="15">
<rect width="15" height="15" fill="#D9D9D9"/>
</mask>
<g mask="url(#mask0_230_1080)">
<path d="M3.125 11.875H4L9.39062 6.48438L8.51562 5.60938L3.125 11V11.875ZM12.0625 5.57812L9.40625 2.95312L10.2812 2.07813C10.5208 1.83854 10.8152 1.71875 11.1644 1.71875C11.5131 1.71875 11.8073 1.83854 12.0469 2.07813L12.9219 2.95312C13.1615 3.19271 13.2865 3.48187 13.2969 3.82062C13.3073 4.15896 13.1927 4.44792 12.9531 4.6875L12.0625 5.57812ZM11.1562 6.5L4.53125 13.125H1.875V10.4688L8.5 3.84375L11.1562 6.5Z" fill="white"/>
</g>
</svg>
