<svg width="20" height="20" viewBox="0 0 20 20" fill="none" xmlns="http://www.w3.org/2000/svg">
<path d="M17.3 6.95V17.1441C17.3008 17.2557 17.2796 17.3664 17.2376 17.4698C17.1956 17.5732 17.1336 17.6674 17.0553 17.7468C16.9769 17.8263 16.8836 17.8896 16.7808 17.933C16.678 17.9765 16.5676 17.9992 16.456 18H2.84405C2.62034 18 2.40578 17.9112 2.24752 17.7531C2.08925 17.595 2.00023 17.3805 2 17.1568V1.8432C2 1.38675 2.37995 1 2.8483 1H11.35V6.1C11.35 6.32543 11.4396 6.54163 11.599 6.70104C11.7584 6.86045 11.9746 6.95 12.2 6.95H17.3ZM17.3 5.25H13.05V1.00255L17.3 5.25Z" fill="white"/>
</svg>
