<svg width="20" height="20" viewBox="0 0 20 20" fill="none" xmlns="http://www.w3.org/2000/svg">
<path d="M16.817 5.76491L12.3625 1.18799C12.2413 1.06656 12.0784 0.99903 11.9091 1.00001H4.27273C3.93518 1.00001 3.61146 1.13778 3.37277 1.38302C3.13409 1.62826 3 1.96088 3 2.3077V16.6923C3 17.0391 3.13409 17.3717 3.37277 17.617C3.61146 17.8622 3.93518 18 4.27273 18H15.7273C16.0648 18 16.3885 17.8622 16.6272 17.617C16.8659 17.3717 17 17.0391 17 16.6923V6.23078C17.0009 6.05682 16.9352 5.88947 16.817 5.76491V5.76491ZM12.5454 13.4231H7.45454C7.28577 13.4231 7.12391 13.3542 7.00457 13.2316C6.88522 13.109 6.81818 12.9426 6.81818 12.7692C6.81818 12.5958 6.88522 12.4295 7.00457 12.3069C7.12391 12.1843 7.28577 12.1154 7.45454 12.1154H12.5454C12.7142 12.1154 12.8761 12.1843 12.9954 12.3069C13.1148 12.4295 13.1818 12.5958 13.1818 12.7692C13.1818 12.9426 13.1148 13.109 12.9954 13.2316C12.8761 13.3542 12.7142 13.4231 12.5454 13.4231ZM12.5454 10.8077H7.45454C7.28577 10.8077 7.12391 10.7388 7.00457 10.6162C6.88522 10.4936 6.81818 10.3273 6.81818 10.1539C6.81818 9.98044 6.88522 9.81413 7.00457 9.69151C7.12391 9.56889 7.28577 9.50001 7.45454 9.50001H12.5454C12.7142 9.50001 12.8761 9.56889 12.9954 9.69151C13.1148 9.81413 13.1818 9.98044 13.1818 10.1539C13.1818 10.3273 13.1148 10.4936 12.9954 10.6162C12.8761 10.7388 12.7142 10.8077 12.5454 10.8077ZM11.9091 6.23078V2.63463L15.4091 6.23078H11.9091Z" fill="white"/>
</svg>
