<svg width="10" height="10" viewBox="0 0 10 10" fill="none" xmlns="http://www.w3.org/2000/svg">
<circle cx="5" cy="5" r="5" fill="#2F3A4D"/>
<mask id="mask0_225_271" style="mask-type:alpha" maskUnits="userSpaceOnUse" x="2" y="1" width="6" height="7">
<rect x="2" y="1.99805" width="6" height="6" fill="#D9D9D9"/>
</mask>
<g mask="url(#mask0_225_271)">
<path d="M4.64922 5.99805C4.64922 5.66055 4.67947 5.4178 4.73997 5.2698C4.8003 5.12196 4.92839 4.96055 5.12422 4.78555C5.29505 4.63555 5.42522 4.5053 5.51472 4.3948C5.60439 4.28446 5.64922 4.15846 5.64922 4.0168C5.64922 3.84596 5.59197 3.7043 5.47747 3.5918C5.3628 3.4793 5.20339 3.42305 4.99922 3.42305C4.78672 3.42305 4.62522 3.48763 4.51472 3.6168C4.40439 3.74596 4.3263 3.87721 4.28047 4.01055L3.63672 3.73555C3.72422 3.46888 3.88464 3.23763 4.11797 3.0418C4.3513 2.84596 4.64505 2.74805 4.99922 2.74805C5.43672 2.74805 5.77322 2.86996 6.00872 3.1138C6.24405 3.35746 6.36172 3.65013 6.36172 3.9918C6.36172 4.20013 6.31697 4.3783 6.22747 4.5263C6.1378 4.67413 5.99714 4.8418 5.80547 5.0293C5.6013 5.22513 5.47739 5.37405 5.43372 5.47605C5.38989 5.57821 5.36797 5.75221 5.36797 5.99805H4.64922ZM4.99922 7.49805C4.86172 7.49805 4.74405 7.44913 4.64622 7.3513C4.54822 7.2533 4.49922 7.13555 4.49922 6.99805C4.49922 6.86055 4.54822 6.7428 4.64622 6.6448C4.74405 6.54696 4.86172 6.49805 4.99922 6.49805C5.13672 6.49805 5.25447 6.54696 5.35247 6.6448C5.4503 6.7428 5.49922 6.86055 5.49922 6.99805C5.49922 7.13555 5.4503 7.2533 5.35247 7.3513C5.25447 7.44913 5.13672 7.49805 4.99922 7.49805Z" fill="white"/>
</g>
</svg>
