<svg width="30" height="30" viewBox="0 0 30 30" fill="none" xmlns="http://www.w3.org/2000/svg">
<mask id="mask0_230_955" style="mask-type:alpha" maskUnits="userSpaceOnUse" x="0" y="0" width="30" height="30">
<rect width="30" height="30" fill="#D9D9D9"/>
</mask>
<g mask="url(#mask0_230_955)">
<path d="M5 23.7499V21.2499H7.5V12.4999C7.5 10.7707 8.02083 9.23405 9.0625 7.88988C10.1042 6.54654 11.4583 5.66654 13.125 5.24988V4.37488C13.125 3.85404 13.3075 3.41154 13.6725 3.04738C14.0367 2.68238 14.4792 2.49988 15 2.49988C15.5208 2.49988 15.9633 2.68238 16.3275 3.04738C16.6925 3.41154 16.875 3.85404 16.875 4.37488V5.24988C18.5417 5.66654 19.8958 6.54654 20.9375 7.88988C21.9792 9.23405 22.5 10.7707 22.5 12.4999V21.2499H25V23.7499H5ZM15 27.4999C14.3125 27.4999 13.7242 27.2553 13.235 26.7661C12.745 26.2761 12.5 25.6874 12.5 24.9999H17.5C17.5 25.6874 17.2554 26.2761 16.7662 26.7661C16.2762 27.2553 15.6875 27.4999 15 27.4999ZM10 21.2499H20V12.4999C20 11.1249 19.5104 9.9478 18.5312 8.96863C17.5521 7.98946 16.375 7.49988 15 7.49988C13.625 7.49988 12.4479 7.98946 11.4687 8.96863C10.4896 9.9478 10 11.1249 10 12.4999V21.2499Z" fill="#B5B1B2"/>
</g>
</svg>
