<svg width="20" height="20" viewBox="0 0 20 20" fill="none" xmlns="http://www.w3.org/2000/svg">
<path d="M9.40264 0C9.80315 0 10.2145 0 10.615 0C10.7341 0.0108423 10.8423 0.043369 10.9614 0.043369C11.4377 0.0650536 11.6758 0.303583 11.6542 0.769801C11.6542 0.824012 11.6542 0.878223 11.665 0.921592C11.7408 2.08171 12.6933 2.98162 13.8408 2.97078C14.4794 2.97078 15.0315 2.73225 15.4861 2.27687C15.7351 2.0275 16.0273 2.00582 16.2763 2.21182C16.8608 2.67804 17.3804 3.20931 17.8351 3.79479C17.9866 3.98995 18.0083 4.21764 17.8784 4.43449C17.8134 4.54291 17.716 4.64049 17.6294 4.72723C16.6119 5.84398 17.0449 7.70885 18.4629 8.24012C18.7227 8.3377 19.0041 8.37023 19.2747 8.40275C19.7186 8.45696 19.9242 8.65212 19.9567 9.07497C19.9675 9.19424 19.9892 9.30266 20 9.42192C20 9.82309 20 10.2351 20 10.6363C19.9784 10.8206 19.9567 11.0049 19.9242 11.2001C19.8809 11.4603 19.6644 11.6554 19.4046 11.6663C19.2639 11.6771 19.134 11.6771 18.9933 11.688C17.6402 11.8072 16.7093 13.1842 17.099 14.4853C17.2181 14.8864 17.4454 15.2225 17.7376 15.5261C17.965 15.7538 17.9866 16.0574 17.8026 16.2851C17.3263 16.8814 16.7851 17.4235 16.1789 17.8897C15.9624 18.0632 15.6701 18.0415 15.4645 17.8572C15.3887 17.7922 15.3237 17.7271 15.248 17.662C14.6093 17.0982 13.5701 16.9465 12.8124 17.3368C12.0547 17.7271 11.6433 18.3668 11.5892 19.2233C11.5568 19.8088 11.4052 19.9823 10.8207 19.9931C10.2361 20.004 9.65161 19.9931 9.06707 19.9931C8.54749 19.9823 8.32017 19.7438 8.34182 19.245C8.34182 19.2016 8.34182 19.1583 8.34182 19.1041C8.27687 18.0849 7.52997 17.25 6.52327 17.0874C5.76555 16.9681 5.09442 17.1958 4.54236 17.7271C4.23927 18.0198 3.947 18.0415 3.65474 17.7488C3.1568 17.2717 2.68051 16.773 2.20423 16.2742C1.96609 16.0249 1.98773 15.7321 2.22588 15.4719C2.26918 15.4285 2.30165 15.3852 2.34495 15.3418C2.92948 14.6804 3.10268 13.9215 2.79959 13.0866C2.51814 12.2951 1.93361 11.8181 1.11094 11.6554C0.926917 11.6229 0.732072 11.6229 0.548053 11.5795C0.30991 11.5253 0.104241 11.3952 0.0717669 11.1242C-0.0256552 10.3544 -0.0256552 9.58456 0.0825916 8.8256C0.12589 8.52202 0.30991 8.38107 0.613001 8.35938C0.81867 8.3377 1.02434 8.32686 1.23001 8.28349C2.25835 8.07748 2.97278 7.19926 2.98361 6.1584C2.98361 5.51871 2.74546 4.98744 2.29083 4.53207C2.03103 4.27185 2.00938 3.97911 2.21505 3.72974C2.68051 3.14426 3.22175 2.61298 3.80628 2.14677C4.0336 1.97329 4.32587 1.98413 4.54236 2.17929C4.60731 2.24435 4.67226 2.29856 4.74803 2.36361C5.59235 3.12257 6.94544 3.09004 7.75729 2.29856C8.21192 1.85403 8.41759 1.30107 8.42842 0.661378C8.43924 0.271057 8.63409 0.0867381 9.02378 0.043369C9.13202 0.0325268 9.27274 0.0216845 9.40264 0ZM13.083 14.8973C13.0289 14.8322 12.9856 14.7888 12.9423 14.7455C12.1954 13.9974 11.4377 13.2384 10.6908 12.4794C10.5825 12.371 10.5068 12.3493 10.3552 12.4035C9.58666 12.6854 8.80728 12.6963 8.03873 12.4361C6.29596 11.8289 5.33256 10.1158 5.71142 8.29433C5.75472 8.11001 5.79802 7.93653 6.00369 7.87148C6.22018 7.79559 6.3609 7.92569 6.50163 8.06664C6.98874 8.55454 7.47585 9.0316 7.95213 9.51951C8.08203 9.64961 8.21192 9.70382 8.38512 9.6713C8.72068 9.61709 9.05625 9.56287 9.39182 9.51951C9.51089 9.49782 9.57583 9.44361 9.59748 9.32434C9.65161 8.97739 9.70573 8.63044 9.75985 8.28349C9.7815 8.12085 9.72738 8.00159 9.60831 7.88232C9.09955 7.38358 8.59079 6.86315 8.09285 6.35357C7.83306 6.09335 7.91966 5.72471 8.26605 5.65966C8.56914 5.59461 8.88305 5.5404 9.19697 5.5404C11.6433 5.57292 13.3212 7.99075 12.4877 10.2893C12.4444 10.4194 12.4552 10.4953 12.5526 10.5929C13.3103 11.341 14.0681 12.1 14.8258 12.8589C14.8691 12.9023 14.9124 12.9348 14.9557 12.9673C16.298 10.8097 16.049 7.5679 13.6892 5.57292C11.4377 3.68637 8.03873 3.83816 5.91709 5.93072C3.81711 8.01243 3.65474 11.4277 5.53823 13.6938C7.48667 16.0574 10.7774 16.4043 13.083 14.8973Z" fill="white"/>
</svg>
