<svg width="20" height="20" viewBox="0 0 20 20" fill="none" xmlns="http://www.w3.org/2000/svg">
<g clip-path="url(#clip0_10_22)">
<path d="M0 7.73442C0.128205 7.40101 0.384615 7.33433 0.641026 7.33433C1.15385 7.33433 1.73077 7.33433 2.24359 7.33433C2.37179 7.33433 2.4359 7.26765 2.5 7.13428C2.75641 6.6675 3.01282 6.13404 3.20513 5.60058C3.71795 4.60035 4.48718 4.0002 5.44872 3.66679C6.53846 3.26669 7.69231 3.13333 8.84615 2.99996C10.0641 2.93328 11.2821 2.93328 12.5 3.13333C13.4615 3.26669 14.359 3.53342 15.2564 3.93352C15.9615 4.26693 16.4744 4.86708 16.859 5.5339C17.1154 6.06736 17.3718 6.60082 17.5641 7.13428C17.6282 7.26765 17.6923 7.33433 17.8205 7.33433C18.3974 7.33433 18.9103 7.33433 19.4872 7.33433C19.9359 7.33433 20.1282 7.60106 20.0641 8.06784C20 8.46793 19.8718 8.93471 19.8077 9.33481C19.7436 9.66822 19.5513 9.86827 19.2308 9.86827C19.0385 9.86827 18.9103 9.86827 18.7179 9.86827C18.7821 9.93495 18.782 10.0016 18.8462 10.0016C19.9359 11.402 19.8077 13.4691 18.5897 14.8028C18.5256 14.8695 18.4615 15.0028 18.4615 15.0695C18.4615 15.6696 18.4615 16.2031 18.4615 16.8033C18.4615 17.3367 18.141 17.6701 17.6282 17.6701C17.0513 17.6701 16.5385 17.6701 15.9615 17.6701C15.4487 17.6701 15.1282 17.3367 15.1282 16.8033C15.1282 16.5365 15.1282 16.3365 15.1282 16.0697C11.7949 16.0697 8.39744 16.0697 5.0641 16.0697C5.0641 16.3365 5.0641 16.6032 5.0641 16.8033C5.0641 17.3367 4.74359 17.6701 4.23077 17.6701C3.65385 17.6701 3.14103 17.6701 2.5641 17.6701C2.05128 17.6701 1.73077 17.3367 1.73077 16.8033C1.73077 16.2031 1.73077 15.603 1.73077 15.0028C1.73077 14.9361 1.66667 14.8028 1.66667 14.7361C0.448718 13.5358 0.320513 11.3353 1.41026 9.93495C1.41026 9.93495 1.47436 9.86827 1.47436 9.80158C1.28205 9.80158 1.15385 9.80158 1.02564 9.80158C0.641026 9.80158 0.448718 9.66822 0.384615 9.26812C0.192308 8.93471 0.0641026 8.46793 0 8.06784C0 7.93447 0 7.86779 0 7.73442ZM16.2179 8.2012C15.9615 7.46769 15.7051 6.73419 15.3205 6.06736C15.1923 5.80063 14.9359 5.60058 14.6795 5.46722C14.1026 5.13381 13.4615 4.93376 12.7564 4.86708C11.2821 4.60035 9.80769 4.53366 8.33333 4.73371C7.4359 4.80039 6.47436 5.00044 5.64103 5.40054C5.25641 5.46722 4.87179 5.73395 4.67949 6.13404C4.35897 6.80087 4.10256 7.46769 3.84615 8.13452V8.2012C7.94872 8.2012 12.0513 8.2012 16.2179 8.2012ZM17.2436 12.4689C17.2436 11.602 16.5385 10.9352 15.7692 10.8685C14.9359 10.8685 14.2308 11.602 14.2308 12.4689C14.2308 13.3358 14.9359 14.0026 15.7051 14.0693C16.5385 14.0026 17.2436 13.3358 17.2436 12.4689ZM4.42308 14.0026C5.25641 13.9359 5.89744 13.2024 5.89744 12.4022C5.83333 11.4686 5.1282 10.8685 4.35897 10.8685C3.39744 10.9352 2.88462 11.6687 2.88462 12.4689C2.88462 13.4024 3.58974 14.0693 4.42308 14.0026Z" fill="white"/>
</g>
<defs>
<clipPath id="clip0_10_22">
<rect width="20" height="14.7368" fill="white" transform="translate(0 3)"/>
</clipPath>
</defs>
</svg>
