<svg width="20" height="20" viewBox="0 0 20 20" fill="none" xmlns="http://www.w3.org/2000/svg">
<path d="M16.3176 9.01176C16.4 8.92941 16.4824 8.84706 16.6471 8.84706C16.7294 8.84706 16.8941 8.92941 16.9765 9.01176L17.9647 10C18.1294 10.1647 18.1294 10.4941 17.9647 10.6588L17.1412 11.4824L15.4941 9.83529L16.3176 9.01176M10.0588 15.2706L15 10.2471L16.7294 11.9765L11.7882 17H10.0588V15.2706ZM8.41176 15.4353V14.6118L8.90588 14.1176L14.2588 8.76471H2.64706V6.29412H15.8235V7.2L17.4706 5.55294V4.64706C17.4706 3.74118 16.7294 3 15.8235 3H2.64706C2.23529 3 1.82353 3.16471 1.49412 3.49412C1.16471 3.82353 1 4.23529 1 4.64706V14.5294C1 14.9412 1.16471 15.3529 1.49412 15.6824C1.82353 16.0118 2.23529 16.1765 2.64706 16.1765H8.41176V15.4353V15.4353Z" fill="#215BB3"/>
</svg>
