<svg width="16" height="16" viewBox="0 0 16 16" fill="none" xmlns="http://www.w3.org/2000/svg">
<mask id="mask0_230_435" style="mask-type:alpha" maskUnits="userSpaceOnUse" x="0" y="0" width="16" height="16">
<rect width="16" height="16" fill="#D9D9D9"/>
</mask>
<g mask="url(#mask0_230_435)">
<path d="M7.99935 10.6667C8.83268 10.6667 9.54113 10.3752 10.1247 9.79208C10.7078 9.20853 10.9993 8.50008 10.9993 7.66675C10.9993 6.83342 10.7078 6.12497 10.1247 5.54141C9.54113 4.9583 8.83268 4.66675 7.99935 4.66675C7.16602 4.66675 6.45757 4.9583 5.87402 5.54141C5.2909 6.12497 4.99935 6.83342 4.99935 7.66675C4.99935 8.50008 5.2909 9.20853 5.87402 9.79208C6.45757 10.3752 7.16602 10.6667 7.99935 10.6667ZM7.99935 9.46675C7.49935 9.46675 7.07446 9.29164 6.72468 8.94141C6.37446 8.59164 6.19935 8.16675 6.19935 7.66675C6.19935 7.16675 6.37446 6.74164 6.72468 6.39141C7.07446 6.04164 7.49935 5.86675 7.99935 5.86675C8.49935 5.86675 8.92446 6.04164 9.27468 6.39141C9.62446 6.74164 9.79935 7.16675 9.79935 7.66675C9.79935 8.16675 9.62446 8.59164 9.27468 8.94141C8.92446 9.29164 8.49935 9.46675 7.99935 9.46675ZM7.99935 12.6667C6.37713 12.6667 4.89935 12.2139 3.56602 11.3081C2.23268 10.4027 1.26602 9.18897 0.666016 7.66675C1.26602 6.14453 2.23268 4.93053 3.56602 4.02475C4.89935 3.11941 6.37713 2.66675 7.99935 2.66675C9.62157 2.66675 11.0993 3.11941 12.4327 4.02475C13.766 4.93053 14.7327 6.14453 15.3327 7.66675C14.7327 9.18897 13.766 10.4027 12.4327 11.3081C11.0993 12.2139 9.62157 12.6667 7.99935 12.6667ZM7.99935 11.3334C9.2549 11.3334 10.4078 11.0027 11.458 10.3414C12.5078 9.68053 13.3105 8.78897 13.866 7.66675C13.3105 6.54453 12.5078 5.65275 11.458 4.99141C10.4078 4.33053 9.2549 4.00008 7.99935 4.00008C6.74379 4.00008 5.5909 4.33053 4.54068 4.99141C3.4909 5.65275 2.68824 6.54453 2.13268 7.66675C2.68824 8.78897 3.4909 9.68053 4.54068 10.3414C5.5909 11.0027 6.74379 11.3334 7.99935 11.3334Z" fill="white"/>
</g>
</svg>
